<svg width="215" height="20" viewBox="0 0 215 20" fill="none" xmlns="http://www.w3.org/2000/svg">
<path d="M5.70818 11.4235V16.1832H13.7158C15.3957 16.1832 16.0397 15.0913 16.0397 13.8314C16.0397 12.2634 15.0597 11.4235 13.1558 11.4235H5.70818ZM0.276428 19.9911V0H15.2837C18.1956 0 20.9115 1.34394 20.9115 5.03976C20.9115 6.57969 20.1275 8.45561 18.2516 9.04358V9.09958C20.5755 9.49156 21.8074 11.7875 21.8074 13.9434C21.8074 16.6032 20.5755 19.9911 14.5278 19.9911H0.276428ZM5.70818 3.63983V7.95163H13.2678C14.5278 7.95163 15.3117 7.27966 15.3117 5.79573C15.3117 4.53579 14.7518 3.63983 12.5119 3.63983H5.70818Z" fill="black"/>
<path d="M26.1805 19.9911V0H31.6122V16.0153H43.7916V19.9911H26.1805Z" fill="black"/>
<path d="M48.1647 19.9911V0H53.5964V19.9911H48.1647Z" fill="black"/>
<path d="M74.8247 13.9434V0H80.0885V19.9911H74.1807L63.2892 6.04772H63.2332V19.9911H57.9695V0H64.2692L74.7687 13.9434H74.8247Z" fill="black"/>
<path d="M92.3665 0H84.4615L111.905 20H119.736L92.3665 0Z" fill="black"/>
<path d="M111.831 0H119.736L92.292 20H84.4615L111.831 0Z" fill="black"/>
<path d="M129.541 3.63983V9.21157H135.364C137.044 9.21157 139.004 9.15557 139.004 6.4677C139.004 3.86382 137.408 3.63983 135.868 3.63983H129.541ZM124.109 19.9911V0H137.548C143.232 0 144.604 3.38784 144.604 6.07572C144.604 10.3315 142.364 12.8514 137.968 12.8514H129.541V19.9911H124.109Z" fill="black"/>
<path d="M158.558 12.2354L155.422 4.3118L152.286 12.2354H158.558ZM161.638 19.9911L160.014 15.8753H150.83L149.206 19.9911H143.354L152.146 0H158.698L167.489 19.9911H161.638Z" fill="black"/>
<path d="M191.063 7.68887H185.522C185.044 4.958 182.791 3.60582 180.113 3.60582C175.235 3.60582 174.201 7.42374 174.201 9.99553C174.201 12.5673 175.235 16.3853 180.113 16.3853C182.605 16.3853 185.018 15.1921 185.522 12.1961H191.116C190.48 17.7109 185.946 19.9911 179.927 19.9911C173.034 19.9911 168.739 17.0216 168.739 9.99553C168.739 2.96949 173.034 0 179.927 0C184.488 0 190.294 1.16659 191.063 7.68887Z" fill="black"/>
<path d="M195.489 19.9911V0H214.164V3.80782H200.921V7.95163H213.492V11.5915H200.921V16.1832H214.276V19.9911H195.489Z" fill="black"/>
</svg>
